<mxfile host="app.diagrams.net" modified="2024-03-22T09:53:45.377Z" agent="Mozilla/5.0 (Windows NT 10.0; Win64; x64) AppleWebKit/537.36 (KHTML, like Gecko) Chrome/122.0.0.0 Safari/537.36 Edg/122.0.0.0" etag="pLFnTodz4hnPv3yB2Bxh" version="24.0.7" type="device">
  <diagram name="Page-1" id="6TBuuih9nH9oJguaqHNF">
    <mxGraphModel dx="1002" dy="569" grid="1" gridSize="10" guides="1" tooltips="1" connect="1" arrows="1" fold="1" page="1" pageScale="1" pageWidth="827" pageHeight="1169" math="0" shadow="0">
      <root>
        <mxCell id="0" />
        <mxCell id="1" parent="0" />
        <mxCell id="fPgYhk_4lXPyHKJmDCoh-1" value="" style="strokeWidth=1;shadow=0;dashed=0;align=center;html=1;shape=mxgraph.mockup.containers.browserWindow;rSize=0;strokeColor=#666666;strokeColor2=#008cff;strokeColor3=#c4c4c4;mainText=,;recursiveResize=0;" vertex="1" parent="1">
          <mxGeometry x="9" y="70" width="851" height="1080" as="geometry" />
        </mxCell>
        <mxCell id="fPgYhk_4lXPyHKJmDCoh-2" value="Main Page" style="strokeWidth=1;shadow=0;dashed=0;align=center;html=1;shape=mxgraph.mockup.containers.anchor;fontSize=17;fontColor=#666666;align=left;whiteSpace=wrap;" vertex="1" parent="fPgYhk_4lXPyHKJmDCoh-1">
          <mxGeometry x="60" y="20" width="110" height="26" as="geometry" />
        </mxCell>
        <mxCell id="fPgYhk_4lXPyHKJmDCoh-3" value="https://www.PihaLodge" style="strokeWidth=1;shadow=0;dashed=0;align=center;html=1;shape=mxgraph.mockup.containers.anchor;rSize=0;fontSize=17;fontColor=#666666;align=left;" vertex="1" parent="fPgYhk_4lXPyHKJmDCoh-1">
          <mxGeometry x="130" y="60" width="250" height="26" as="geometry" />
        </mxCell>
        <mxCell id="fPgYhk_4lXPyHKJmDCoh-66" value="" style="verticalLabelPosition=bottom;shadow=0;dashed=0;align=center;html=1;verticalAlign=top;strokeWidth=1;shape=mxgraph.mockup.graphics.simpleIcon;strokeColor=#999999;" vertex="1" parent="fPgYhk_4lXPyHKJmDCoh-1">
          <mxGeometry x="11" y="130" width="250" height="130" as="geometry" />
        </mxCell>
        <mxCell id="fPgYhk_4lXPyHKJmDCoh-67" value="Piha Lodge" style="text;strokeColor=none;fillColor=none;html=1;fontSize=24;fontStyle=1;verticalAlign=middle;align=center;" vertex="1" parent="fPgYhk_4lXPyHKJmDCoh-1">
          <mxGeometry x="86" y="175" width="100" height="40" as="geometry" />
        </mxCell>
        <mxCell id="fPgYhk_4lXPyHKJmDCoh-73" value="About Us" style="strokeWidth=1;shadow=0;dashed=0;align=center;html=1;shape=mxgraph.mockup.buttons.button;strokeColor=#666666;fontColor=#ffffff;mainText=;buttonStyle=round;fontSize=17;fontStyle=1;fillColor=#1FFF87;whiteSpace=wrap;" vertex="1" parent="fPgYhk_4lXPyHKJmDCoh-1">
          <mxGeometry x="631" y="130" width="150" height="50" as="geometry" />
        </mxCell>
        <mxCell id="fPgYhk_4lXPyHKJmDCoh-74" value="Contact Us" style="strokeWidth=1;shadow=0;dashed=0;align=center;html=1;shape=mxgraph.mockup.buttons.button;strokeColor=#666666;fontColor=#ffffff;mainText=;buttonStyle=round;fontSize=17;fontStyle=1;fillColor=#1FFF87;whiteSpace=wrap;labelBackgroundColor=none;" vertex="1" parent="fPgYhk_4lXPyHKJmDCoh-1">
          <mxGeometry x="461" y="130" width="150" height="50" as="geometry" />
        </mxCell>
        <mxCell id="fPgYhk_4lXPyHKJmDCoh-75" value="Special Offers" style="strokeWidth=1;shadow=0;dashed=0;align=center;html=1;shape=mxgraph.mockup.buttons.button;strokeColor=#666666;fontColor=#ffffff;mainText=;buttonStyle=round;fontSize=17;fontStyle=1;fillColor=#1FFF87;whiteSpace=wrap;" vertex="1" parent="fPgYhk_4lXPyHKJmDCoh-1">
          <mxGeometry x="291" y="130" width="150" height="50" as="geometry" />
        </mxCell>
        <mxCell id="fPgYhk_4lXPyHKJmDCoh-140" value="" style="shape=mxgraph.mockup.containers.marginRect;rectMarginTop=10;strokeColor=#666666;strokeWidth=1;dashed=0;rounded=1;arcSize=5;recursiveResize=0;html=1;whiteSpace=wrap;" vertex="1" parent="fPgYhk_4lXPyHKJmDCoh-1">
          <mxGeometry x="201" y="290" width="449" height="750" as="geometry" />
        </mxCell>
        <mxCell id="fPgYhk_4lXPyHKJmDCoh-141" value="Make your booking with us" style="shape=rect;strokeColor=none;fillColor=#008cff;strokeWidth=1;dashed=0;rounded=1;arcSize=20;fontColor=#ffffff;fontSize=17;spacing=2;spacingTop=-2;align=left;autosize=1;spacingLeft=4;resizeWidth=0;resizeHeight=0;perimeter=none;html=1;whiteSpace=wrap;" vertex="1" parent="fPgYhk_4lXPyHKJmDCoh-140">
          <mxGeometry x="90" y="35" width="255" height="30" as="geometry" />
        </mxCell>
        <mxCell id="fPgYhk_4lXPyHKJmDCoh-78" value="" style="strokeWidth=1;shadow=0;dashed=0;align=left;html=1;shape=mxgraph.mockup.forms.rrect;rSize=5;strokeColor=#999999;fillColor=#ffffff;" vertex="1" parent="fPgYhk_4lXPyHKJmDCoh-140">
          <mxGeometry x="140" y="180" width="160" height="175" as="geometry" />
        </mxCell>
        <mxCell id="fPgYhk_4lXPyHKJmDCoh-79" value="October 2014" style="strokeWidth=1;shadow=0;dashed=0;align=center;html=1;shape=mxgraph.mockup.forms.anchor;fontColor=#999999;" vertex="1" parent="fPgYhk_4lXPyHKJmDCoh-78">
          <mxGeometry x="30" y="8" width="100" height="20" as="geometry" />
        </mxCell>
        <mxCell id="fPgYhk_4lXPyHKJmDCoh-80" value="&lt;" style="strokeWidth=1;shadow=0;dashed=0;align=center;html=1;shape=mxgraph.mockup.forms.rrect;rSize=4;strokeColor=#999999;fontColor=#008cff;fontSize=19;fontStyle=1;" vertex="1" parent="fPgYhk_4lXPyHKJmDCoh-78">
          <mxGeometry x="8" y="8" width="25" height="20" as="geometry" />
        </mxCell>
        <mxCell id="fPgYhk_4lXPyHKJmDCoh-81" value="&gt;" style="strokeWidth=1;shadow=0;dashed=0;align=center;html=1;shape=mxgraph.mockup.forms.rrect;rSize=4;strokeColor=#999999;fontColor=#008cff;fontSize=19;fontStyle=1;" vertex="1" parent="fPgYhk_4lXPyHKJmDCoh-78">
          <mxGeometry x="127" y="8" width="25" height="20" as="geometry" />
        </mxCell>
        <mxCell id="fPgYhk_4lXPyHKJmDCoh-82" value="Mo" style="strokeWidth=1;shadow=0;dashed=0;align=center;html=1;shape=mxgraph.mockup.forms.anchor;fontColor=#999999;" vertex="1" parent="fPgYhk_4lXPyHKJmDCoh-78">
          <mxGeometry x="10" y="28" width="20" height="20" as="geometry" />
        </mxCell>
        <mxCell id="fPgYhk_4lXPyHKJmDCoh-83" value="Tu" style="strokeWidth=1;shadow=0;dashed=0;align=center;html=1;shape=mxgraph.mockup.forms.anchor;fontColor=#999999;" vertex="1" parent="fPgYhk_4lXPyHKJmDCoh-78">
          <mxGeometry x="30" y="28" width="20" height="20" as="geometry" />
        </mxCell>
        <mxCell id="fPgYhk_4lXPyHKJmDCoh-84" value="We" style="strokeWidth=1;shadow=0;dashed=0;align=center;html=1;shape=mxgraph.mockup.forms.anchor;fontColor=#999999;" vertex="1" parent="fPgYhk_4lXPyHKJmDCoh-78">
          <mxGeometry x="50" y="28" width="20" height="20" as="geometry" />
        </mxCell>
        <mxCell id="fPgYhk_4lXPyHKJmDCoh-85" value="Th" style="strokeWidth=1;shadow=0;dashed=0;align=center;html=1;shape=mxgraph.mockup.forms.anchor;fontColor=#999999;" vertex="1" parent="fPgYhk_4lXPyHKJmDCoh-78">
          <mxGeometry x="70" y="28" width="20" height="20" as="geometry" />
        </mxCell>
        <mxCell id="fPgYhk_4lXPyHKJmDCoh-86" value="Fr" style="strokeWidth=1;shadow=0;dashed=0;align=center;html=1;shape=mxgraph.mockup.forms.anchor;fontColor=#999999;" vertex="1" parent="fPgYhk_4lXPyHKJmDCoh-78">
          <mxGeometry x="90" y="28" width="20" height="20" as="geometry" />
        </mxCell>
        <mxCell id="fPgYhk_4lXPyHKJmDCoh-87" value="Sa" style="strokeWidth=1;shadow=0;dashed=0;align=center;html=1;shape=mxgraph.mockup.forms.anchor;fontColor=#999999;" vertex="1" parent="fPgYhk_4lXPyHKJmDCoh-78">
          <mxGeometry x="110" y="28" width="20" height="20" as="geometry" />
        </mxCell>
        <mxCell id="fPgYhk_4lXPyHKJmDCoh-88" value="Su" style="strokeWidth=1;shadow=0;dashed=0;align=center;html=1;shape=mxgraph.mockup.forms.anchor;fontColor=#999999;" vertex="1" parent="fPgYhk_4lXPyHKJmDCoh-78">
          <mxGeometry x="130" y="28" width="20" height="20" as="geometry" />
        </mxCell>
        <mxCell id="fPgYhk_4lXPyHKJmDCoh-89" value="1" style="strokeWidth=1;shadow=0;dashed=0;align=center;html=1;shape=mxgraph.mockup.forms.rrect;rSize=0;strokeColor=#999999;fontColor=#999999;" vertex="1" parent="fPgYhk_4lXPyHKJmDCoh-78">
          <mxGeometry x="10" y="48" width="20" height="20" as="geometry" />
        </mxCell>
        <mxCell id="fPgYhk_4lXPyHKJmDCoh-90" value="2" style="strokeWidth=1;shadow=0;dashed=0;align=center;html=1;shape=mxgraph.mockup.forms.rrect;rSize=0;strokeColor=#999999;fontColor=#999999;" vertex="1" parent="fPgYhk_4lXPyHKJmDCoh-78">
          <mxGeometry x="30" y="48" width="20" height="20" as="geometry" />
        </mxCell>
        <mxCell id="fPgYhk_4lXPyHKJmDCoh-91" value="3" style="strokeWidth=1;shadow=0;dashed=0;align=center;html=1;shape=mxgraph.mockup.forms.rrect;rSize=0;strokeColor=#999999;fontColor=#999999;" vertex="1" parent="fPgYhk_4lXPyHKJmDCoh-78">
          <mxGeometry x="50" y="48" width="20" height="20" as="geometry" />
        </mxCell>
        <mxCell id="fPgYhk_4lXPyHKJmDCoh-92" value="4" style="strokeWidth=1;shadow=0;dashed=0;align=center;html=1;shape=mxgraph.mockup.forms.rrect;rSize=0;strokeColor=#999999;fontColor=#999999;" vertex="1" parent="fPgYhk_4lXPyHKJmDCoh-78">
          <mxGeometry x="70" y="48" width="20" height="20" as="geometry" />
        </mxCell>
        <mxCell id="fPgYhk_4lXPyHKJmDCoh-93" value="5" style="strokeWidth=1;shadow=0;dashed=0;align=center;html=1;shape=mxgraph.mockup.forms.rrect;rSize=0;strokeColor=#999999;fontColor=#999999;" vertex="1" parent="fPgYhk_4lXPyHKJmDCoh-78">
          <mxGeometry x="90" y="48" width="20" height="20" as="geometry" />
        </mxCell>
        <mxCell id="fPgYhk_4lXPyHKJmDCoh-94" value="6" style="strokeWidth=1;shadow=0;dashed=0;align=center;html=1;shape=mxgraph.mockup.forms.rrect;rSize=0;strokeColor=#999999;fontColor=#999999;" vertex="1" parent="fPgYhk_4lXPyHKJmDCoh-78">
          <mxGeometry x="110" y="48" width="20" height="20" as="geometry" />
        </mxCell>
        <mxCell id="fPgYhk_4lXPyHKJmDCoh-95" value="7" style="strokeWidth=1;shadow=0;dashed=0;align=center;html=1;shape=mxgraph.mockup.forms.rrect;rSize=0;strokeColor=#999999;fontColor=#999999;" vertex="1" parent="fPgYhk_4lXPyHKJmDCoh-78">
          <mxGeometry x="130" y="48" width="20" height="20" as="geometry" />
        </mxCell>
        <mxCell id="fPgYhk_4lXPyHKJmDCoh-96" value="8" style="strokeWidth=1;shadow=0;dashed=0;align=center;html=1;shape=mxgraph.mockup.forms.rrect;rSize=0;strokeColor=#999999;fontColor=#999999;" vertex="1" parent="fPgYhk_4lXPyHKJmDCoh-78">
          <mxGeometry x="10" y="68" width="20" height="20" as="geometry" />
        </mxCell>
        <mxCell id="fPgYhk_4lXPyHKJmDCoh-97" value="9" style="strokeWidth=1;shadow=0;dashed=0;align=center;html=1;shape=mxgraph.mockup.forms.rrect;rSize=0;strokeColor=#999999;fontColor=#999999;" vertex="1" parent="fPgYhk_4lXPyHKJmDCoh-78">
          <mxGeometry x="30" y="68" width="20" height="20" as="geometry" />
        </mxCell>
        <mxCell id="fPgYhk_4lXPyHKJmDCoh-98" value="10" style="strokeWidth=1;shadow=0;dashed=0;align=center;html=1;shape=mxgraph.mockup.forms.rrect;rSize=0;strokeColor=#999999;fontColor=#999999;" vertex="1" parent="fPgYhk_4lXPyHKJmDCoh-78">
          <mxGeometry x="50" y="68" width="20" height="20" as="geometry" />
        </mxCell>
        <mxCell id="fPgYhk_4lXPyHKJmDCoh-99" value="11" style="strokeWidth=1;shadow=0;dashed=0;align=center;html=1;shape=mxgraph.mockup.forms.rrect;rSize=0;strokeColor=#999999;fontColor=#999999;" vertex="1" parent="fPgYhk_4lXPyHKJmDCoh-78">
          <mxGeometry x="70" y="68" width="20" height="20" as="geometry" />
        </mxCell>
        <mxCell id="fPgYhk_4lXPyHKJmDCoh-100" value="12" style="strokeWidth=1;shadow=0;dashed=0;align=center;html=1;shape=mxgraph.mockup.forms.rrect;rSize=0;strokeColor=#999999;fontColor=#999999;" vertex="1" parent="fPgYhk_4lXPyHKJmDCoh-78">
          <mxGeometry x="90" y="68" width="20" height="20" as="geometry" />
        </mxCell>
        <mxCell id="fPgYhk_4lXPyHKJmDCoh-101" value="13" style="strokeWidth=1;shadow=0;dashed=0;align=center;html=1;shape=mxgraph.mockup.forms.rrect;rSize=0;strokeColor=#999999;fontColor=#999999;" vertex="1" parent="fPgYhk_4lXPyHKJmDCoh-78">
          <mxGeometry x="110" y="68" width="20" height="20" as="geometry" />
        </mxCell>
        <mxCell id="fPgYhk_4lXPyHKJmDCoh-102" value="14" style="strokeWidth=1;shadow=0;dashed=0;align=center;html=1;shape=mxgraph.mockup.forms.rrect;rSize=0;strokeColor=#999999;fontColor=#999999;" vertex="1" parent="fPgYhk_4lXPyHKJmDCoh-78">
          <mxGeometry x="130" y="68" width="20" height="20" as="geometry" />
        </mxCell>
        <mxCell id="fPgYhk_4lXPyHKJmDCoh-103" value="15" style="strokeWidth=1;shadow=0;dashed=0;align=center;html=1;shape=mxgraph.mockup.forms.rrect;rSize=0;strokeColor=#999999;fontColor=#999999;" vertex="1" parent="fPgYhk_4lXPyHKJmDCoh-78">
          <mxGeometry x="10" y="88" width="20" height="20" as="geometry" />
        </mxCell>
        <mxCell id="fPgYhk_4lXPyHKJmDCoh-104" value="16" style="strokeWidth=1;shadow=0;dashed=0;align=center;html=1;shape=mxgraph.mockup.forms.rrect;rSize=0;strokeColor=#999999;fontColor=#999999;" vertex="1" parent="fPgYhk_4lXPyHKJmDCoh-78">
          <mxGeometry x="30" y="88" width="20" height="20" as="geometry" />
        </mxCell>
        <mxCell id="fPgYhk_4lXPyHKJmDCoh-105" value="17" style="strokeWidth=1;shadow=0;dashed=0;align=center;html=1;shape=mxgraph.mockup.forms.rrect;rSize=0;strokeColor=#999999;fontColor=#999999;" vertex="1" parent="fPgYhk_4lXPyHKJmDCoh-78">
          <mxGeometry x="50" y="88" width="20" height="20" as="geometry" />
        </mxCell>
        <mxCell id="fPgYhk_4lXPyHKJmDCoh-106" value="18" style="strokeWidth=1;shadow=0;dashed=0;align=center;html=1;shape=mxgraph.mockup.forms.rrect;rSize=0;strokeColor=#999999;fontColor=#999999;" vertex="1" parent="fPgYhk_4lXPyHKJmDCoh-78">
          <mxGeometry x="70" y="88" width="20" height="20" as="geometry" />
        </mxCell>
        <mxCell id="fPgYhk_4lXPyHKJmDCoh-107" value="19" style="strokeWidth=1;shadow=0;dashed=0;align=center;html=1;shape=mxgraph.mockup.forms.rrect;rSize=0;strokeColor=#999999;fontColor=#999999;" vertex="1" parent="fPgYhk_4lXPyHKJmDCoh-78">
          <mxGeometry x="90" y="88" width="20" height="20" as="geometry" />
        </mxCell>
        <mxCell id="fPgYhk_4lXPyHKJmDCoh-108" value="20" style="strokeWidth=1;shadow=0;dashed=0;align=center;html=1;shape=mxgraph.mockup.forms.rrect;rSize=0;strokeColor=#999999;fontColor=#999999;" vertex="1" parent="fPgYhk_4lXPyHKJmDCoh-78">
          <mxGeometry x="110" y="88" width="20" height="20" as="geometry" />
        </mxCell>
        <mxCell id="fPgYhk_4lXPyHKJmDCoh-109" value="21" style="strokeWidth=1;shadow=0;dashed=0;align=center;html=1;shape=mxgraph.mockup.forms.rrect;rSize=0;strokeColor=#999999;fontColor=#999999;" vertex="1" parent="fPgYhk_4lXPyHKJmDCoh-78">
          <mxGeometry x="130" y="88" width="20" height="20" as="geometry" />
        </mxCell>
        <mxCell id="fPgYhk_4lXPyHKJmDCoh-110" value="22" style="strokeWidth=1;shadow=0;dashed=0;align=center;html=1;shape=mxgraph.mockup.forms.rrect;rSize=0;strokeColor=#999999;fontColor=#999999;" vertex="1" parent="fPgYhk_4lXPyHKJmDCoh-78">
          <mxGeometry x="10" y="108" width="20" height="20" as="geometry" />
        </mxCell>
        <mxCell id="fPgYhk_4lXPyHKJmDCoh-111" value="23" style="strokeWidth=1;shadow=0;dashed=0;align=center;html=1;shape=mxgraph.mockup.forms.rrect;rSize=0;strokeColor=#999999;fontColor=#999999;" vertex="1" parent="fPgYhk_4lXPyHKJmDCoh-78">
          <mxGeometry x="30" y="108" width="20" height="20" as="geometry" />
        </mxCell>
        <mxCell id="fPgYhk_4lXPyHKJmDCoh-112" value="25" style="strokeWidth=1;shadow=0;dashed=0;align=center;html=1;shape=mxgraph.mockup.forms.rrect;rSize=0;strokeColor=#999999;fontColor=#999999;" vertex="1" parent="fPgYhk_4lXPyHKJmDCoh-78">
          <mxGeometry x="70" y="108" width="20" height="20" as="geometry" />
        </mxCell>
        <mxCell id="fPgYhk_4lXPyHKJmDCoh-113" value="26" style="strokeWidth=1;shadow=0;dashed=0;align=center;html=1;shape=mxgraph.mockup.forms.rrect;rSize=0;strokeColor=#999999;fontColor=#999999;" vertex="1" parent="fPgYhk_4lXPyHKJmDCoh-78">
          <mxGeometry x="90" y="108" width="20" height="20" as="geometry" />
        </mxCell>
        <mxCell id="fPgYhk_4lXPyHKJmDCoh-114" value="27" style="strokeWidth=1;shadow=0;dashed=0;align=center;html=1;shape=mxgraph.mockup.forms.rrect;rSize=0;strokeColor=#999999;fontColor=#999999;" vertex="1" parent="fPgYhk_4lXPyHKJmDCoh-78">
          <mxGeometry x="110" y="108" width="20" height="20" as="geometry" />
        </mxCell>
        <mxCell id="fPgYhk_4lXPyHKJmDCoh-115" value="28" style="strokeWidth=1;shadow=0;dashed=0;align=center;html=1;shape=mxgraph.mockup.forms.rrect;rSize=0;strokeColor=#999999;fontColor=#999999;" vertex="1" parent="fPgYhk_4lXPyHKJmDCoh-78">
          <mxGeometry x="130" y="108" width="20" height="20" as="geometry" />
        </mxCell>
        <mxCell id="fPgYhk_4lXPyHKJmDCoh-116" value="29" style="strokeWidth=1;shadow=0;dashed=0;align=center;html=1;shape=mxgraph.mockup.forms.rrect;rSize=0;strokeColor=#999999;fontColor=#999999;" vertex="1" parent="fPgYhk_4lXPyHKJmDCoh-78">
          <mxGeometry x="10" y="128" width="20" height="20" as="geometry" />
        </mxCell>
        <mxCell id="fPgYhk_4lXPyHKJmDCoh-117" value="30" style="strokeWidth=1;shadow=0;dashed=0;align=center;html=1;shape=mxgraph.mockup.forms.rrect;rSize=0;strokeColor=#999999;fontColor=#999999;" vertex="1" parent="fPgYhk_4lXPyHKJmDCoh-78">
          <mxGeometry x="30" y="128" width="20" height="20" as="geometry" />
        </mxCell>
        <mxCell id="fPgYhk_4lXPyHKJmDCoh-118" value="31" style="strokeWidth=1;shadow=0;dashed=0;align=center;html=1;shape=mxgraph.mockup.forms.rrect;rSize=0;strokeColor=#999999;fontColor=#999999;" vertex="1" parent="fPgYhk_4lXPyHKJmDCoh-78">
          <mxGeometry x="50" y="128" width="20" height="20" as="geometry" />
        </mxCell>
        <mxCell id="fPgYhk_4lXPyHKJmDCoh-119" value="1" style="strokeWidth=1;shadow=0;dashed=0;align=center;html=1;shape=mxgraph.mockup.forms.rrect;rSize=0;strokeColor=#999999;fontColor=#999999;fillColor=#ddeeff;" vertex="1" parent="fPgYhk_4lXPyHKJmDCoh-78">
          <mxGeometry x="70" y="128" width="20" height="20" as="geometry" />
        </mxCell>
        <mxCell id="fPgYhk_4lXPyHKJmDCoh-120" value="2" style="strokeWidth=1;shadow=0;dashed=0;align=center;html=1;shape=mxgraph.mockup.forms.rrect;rSize=0;strokeColor=#999999;fontColor=#999999;fillColor=#ddeeff;" vertex="1" parent="fPgYhk_4lXPyHKJmDCoh-78">
          <mxGeometry x="90" y="128" width="20" height="20" as="geometry" />
        </mxCell>
        <mxCell id="fPgYhk_4lXPyHKJmDCoh-121" value="3" style="strokeWidth=1;shadow=0;dashed=0;align=center;html=1;shape=mxgraph.mockup.forms.rrect;rSize=0;strokeColor=#999999;fontColor=#999999;fillColor=#ddeeff;" vertex="1" parent="fPgYhk_4lXPyHKJmDCoh-78">
          <mxGeometry x="110" y="128" width="20" height="20" as="geometry" />
        </mxCell>
        <mxCell id="fPgYhk_4lXPyHKJmDCoh-122" value="4" style="strokeWidth=1;shadow=0;dashed=0;align=center;html=1;shape=mxgraph.mockup.forms.rrect;rSize=0;strokeColor=#999999;fontColor=#999999;fillColor=#ddeeff;" vertex="1" parent="fPgYhk_4lXPyHKJmDCoh-78">
          <mxGeometry x="130" y="128" width="20" height="20" as="geometry" />
        </mxCell>
        <mxCell id="fPgYhk_4lXPyHKJmDCoh-123" value="5" style="strokeWidth=1;shadow=0;dashed=0;align=center;html=1;shape=mxgraph.mockup.forms.rrect;rSize=0;strokeColor=#999999;fontColor=#999999;fillColor=#ddeeff;" vertex="1" parent="fPgYhk_4lXPyHKJmDCoh-78">
          <mxGeometry x="10" y="148" width="20" height="20" as="geometry" />
        </mxCell>
        <mxCell id="fPgYhk_4lXPyHKJmDCoh-124" value="6" style="strokeWidth=1;shadow=0;dashed=0;align=center;html=1;shape=mxgraph.mockup.forms.rrect;rSize=0;strokeColor=#999999;fontColor=#999999;fillColor=#ddeeff;" vertex="1" parent="fPgYhk_4lXPyHKJmDCoh-78">
          <mxGeometry x="30" y="148" width="20" height="20" as="geometry" />
        </mxCell>
        <mxCell id="fPgYhk_4lXPyHKJmDCoh-125" value="7" style="strokeWidth=1;shadow=0;dashed=0;align=center;html=1;shape=mxgraph.mockup.forms.rrect;rSize=0;strokeColor=#999999;fontColor=#999999;fillColor=#ddeeff;" vertex="1" parent="fPgYhk_4lXPyHKJmDCoh-78">
          <mxGeometry x="50" y="148" width="20" height="20" as="geometry" />
        </mxCell>
        <mxCell id="fPgYhk_4lXPyHKJmDCoh-126" value="8" style="strokeWidth=1;shadow=0;dashed=0;align=center;html=1;shape=mxgraph.mockup.forms.rrect;rSize=0;strokeColor=#999999;fontColor=#999999;fillColor=#ddeeff;" vertex="1" parent="fPgYhk_4lXPyHKJmDCoh-78">
          <mxGeometry x="70" y="148" width="20" height="20" as="geometry" />
        </mxCell>
        <mxCell id="fPgYhk_4lXPyHKJmDCoh-127" value="9" style="strokeWidth=1;shadow=0;dashed=0;align=center;html=1;shape=mxgraph.mockup.forms.rrect;rSize=0;strokeColor=#999999;fontColor=#999999;fillColor=#ddeeff;" vertex="1" parent="fPgYhk_4lXPyHKJmDCoh-78">
          <mxGeometry x="90" y="148" width="20" height="20" as="geometry" />
        </mxCell>
        <mxCell id="fPgYhk_4lXPyHKJmDCoh-128" value="10" style="strokeWidth=1;shadow=0;dashed=0;align=center;html=1;shape=mxgraph.mockup.forms.rrect;rSize=0;strokeColor=#999999;fontColor=#999999;fillColor=#ddeeff;" vertex="1" parent="fPgYhk_4lXPyHKJmDCoh-78">
          <mxGeometry x="110" y="148" width="20" height="20" as="geometry" />
        </mxCell>
        <mxCell id="fPgYhk_4lXPyHKJmDCoh-129" value="11" style="strokeWidth=1;shadow=0;dashed=0;align=center;html=1;shape=mxgraph.mockup.forms.rrect;rSize=0;strokeColor=#999999;fontColor=#999999;fillColor=#ddeeff;" vertex="1" parent="fPgYhk_4lXPyHKJmDCoh-78">
          <mxGeometry x="130" y="148" width="20" height="20" as="geometry" />
        </mxCell>
        <mxCell id="fPgYhk_4lXPyHKJmDCoh-130" value="24" style="strokeWidth=1;shadow=0;dashed=0;align=center;html=1;shape=mxgraph.mockup.forms.rrect;rSize=0;strokeColor=#ff0000;fontColor=#ffffff;strokeWidth=2;fillColor=#008cff;" vertex="1" parent="fPgYhk_4lXPyHKJmDCoh-78">
          <mxGeometry x="50" y="108" width="20" height="20" as="geometry" />
        </mxCell>
        <UserObject label="When do you plan to stay with us?" placeholders="1" name="Variable" id="fPgYhk_4lXPyHKJmDCoh-139">
          <mxCell style="text;html=1;strokeColor=none;fillColor=none;align=center;verticalAlign=middle;whiteSpace=wrap;overflow=hidden;fontSize=15;" vertex="1" parent="fPgYhk_4lXPyHKJmDCoh-140">
            <mxGeometry x="151.25" y="100" width="137.5" height="40" as="geometry" />
          </mxCell>
        </UserObject>
        <UserObject label="How many guests?" placeholders="1" name="Variable" id="fPgYhk_4lXPyHKJmDCoh-275">
          <mxCell style="text;html=1;strokeColor=none;fillColor=none;align=center;verticalAlign=middle;whiteSpace=wrap;overflow=hidden;fontSize=15;" vertex="1" parent="fPgYhk_4lXPyHKJmDCoh-140">
            <mxGeometry x="20" y="390" width="142" height="20" as="geometry" />
          </mxCell>
        </UserObject>
        <mxCell id="fPgYhk_4lXPyHKJmDCoh-277" value="1" style="strokeWidth=1;shadow=0;dashed=0;align=center;html=1;shape=mxgraph.mockup.forms.comboBox;strokeColor=#999999;fillColor=#ddeeff;align=left;fillColor2=#aaddff;mainText=;fontColor=#666666;fontSize=17;spacingLeft=3;" vertex="1" parent="fPgYhk_4lXPyHKJmDCoh-140">
          <mxGeometry x="24" y="450" width="150" height="30" as="geometry" />
        </mxCell>
        <mxCell id="fPgYhk_4lXPyHKJmDCoh-278" value="" style="verticalLabelPosition=bottom;shadow=0;dashed=0;align=center;html=1;verticalAlign=top;strokeWidth=1;shape=mxgraph.mockup.misc.progressBar;fillColor=#cccccc;strokeColor=none;fillColor2=#99ddff;barPos=80;" vertex="1" parent="fPgYhk_4lXPyHKJmDCoh-140">
          <mxGeometry x="124.5" y="700" width="200" height="20" as="geometry" />
        </mxCell>
        <mxCell id="fPgYhk_4lXPyHKJmDCoh-283" value="Submit" style="rounded=1;html=1;shadow=0;dashed=0;whiteSpace=wrap;fontSize=10;fillColor=#E6E6E6;align=center;strokeColor=#B3B3B3;fontColor=#333333;" vertex="1" parent="fPgYhk_4lXPyHKJmDCoh-140">
          <mxGeometry x="164.75" y="650" width="105.5" height="16.88" as="geometry" />
        </mxCell>
        <UserObject label="Adults" placeholders="1" name="Variable" id="fPgYhk_4lXPyHKJmDCoh-285">
          <mxCell style="text;html=1;strokeColor=none;fillColor=none;align=center;verticalAlign=middle;whiteSpace=wrap;overflow=hidden;fontSize=15;" vertex="1" parent="fPgYhk_4lXPyHKJmDCoh-140">
            <mxGeometry x="182.5" y="460" width="142" height="20" as="geometry" />
          </mxCell>
        </UserObject>
        <mxCell id="fPgYhk_4lXPyHKJmDCoh-286" value="1" style="strokeWidth=1;shadow=0;dashed=0;align=center;html=1;shape=mxgraph.mockup.forms.comboBox;strokeColor=#999999;fillColor=#ddeeff;align=left;fillColor2=#aaddff;mainText=;fontColor=#666666;fontSize=17;spacingLeft=3;" vertex="1" parent="fPgYhk_4lXPyHKJmDCoh-140">
          <mxGeometry x="20" y="540" width="150" height="30" as="geometry" />
        </mxCell>
        <UserObject label="Children" placeholders="1" name="Variable" id="fPgYhk_4lXPyHKJmDCoh-287">
          <mxCell style="text;html=1;strokeColor=none;fillColor=none;align=center;verticalAlign=middle;whiteSpace=wrap;overflow=hidden;fontSize=15;" vertex="1" parent="fPgYhk_4lXPyHKJmDCoh-140">
            <mxGeometry x="190" y="545" width="142" height="20" as="geometry" />
          </mxCell>
        </UserObject>
        <mxCell id="fPgYhk_4lXPyHKJmDCoh-4" value="&lt;font style=&quot;font-size: 16px;&quot;&gt;Homepage&lt;/font&gt;" style="text;html=1;align=center;verticalAlign=middle;resizable=0;points=[];autosize=1;strokeColor=none;fillColor=none;" vertex="1" parent="1">
          <mxGeometry x="290" y="8" width="100" height="30" as="geometry" />
        </mxCell>
      </root>
    </mxGraphModel>
  </diagram>
</mxfile>
